<svg id="Layer_1" data-name="Layer 1" xmlns="http://www.w3.org/2000/svg" xmlns:xlink="http://www.w3.org/1999/xlink" viewBox="0 0 299.93 332.01"><defs><style>.cls-1{fill:#1a181b;}.cls-2{fill:url(#linear-gradient);}.cls-3{fill:#399;}</style><linearGradient id="linear-gradient" x1="112.35" y1="196.56" x2="285.16" y2="196.56" gradientUnits="userSpaceOnUse"><stop offset="0.22" stop-color="#fff"/><stop offset="1"/></linearGradient></defs><title>logo-design2</title><path class="cls-1" d="M237.2,4.65l-124,71,38,22.16L237,48.68a50,50,0,0,1,50,.19l62.19,36.22a50,50,0,0,1,24.84,43.4l-.27,71.86a50,50,0,0,1-25.32,43.29L286,279.1a50,50,0,0,1-49.69-.19l-85.74-49.53-38.22,21.87,123.64,72a50,50,0,0,0,50,.19l100.69-57.62a50,50,0,0,0,25.16-43.21l.44-116a50,50,0,0,0-24.84-43.4L287.2,4.84A50,50,0,0,0,237.2,4.65Z" transform="translate(-112.35 1.96)"/><path class="cls-2" d="M112.53,204.92c-.24,6.47.58,39.71-.18,46.28l172.81-87.75-34.93-19.2a18.91,18.91,0,0,0-17.67-.29Z" transform="translate(-112.35 1.96)"/><path class="cls-3" d="M112.53,204.92c-.24,6.47.58,39.71-.18,46.28l172.81-87.75-34.93-19.2a18.91,18.91,0,0,0-17.67-.29Z" transform="translate(-112.35 1.96)"/></svg>